# xmcd
#
# Track frame offsets:
#	150
#	9887
#	17607
#	33558
#	48991
#	61733
#	66532
#	88698
#	100737
#	112997
#	118416
#	128366
#	139473
#	147246
#	159848
#	168423
#	177709
#	202417
#	221525
#	234776
#
# Disc length: 3348 seconds
#
# Revision: 14
# Processed by: cddbd v1.5.2PL0 Copyright (c) Steve Scherf et al.
# Submitted via: audiograbber 1.83.01
#
DISCID=190d1214
DTITLE=Tom Waits - Orphans [Disc 3 - Bastards]
DYEAR=2006
DGENRE=Rock
TTITLE0=What Keeps Mankind Alive
TTITLE1=Children's Story
TTITLE2=Heigh Ho
TTITLE3=Army Ants
TTITLE4=Books Of Moses
TTITLE5=Bone Chain
TTITLE6=Two Sisters
TTITLE7=First Kiss
TTITLE8=Dog Door
TTITLE9=Redrum
TTITLE10=Nirvana
TTITLE11=Home I'll Never Be
TTITLE12=Poor Little Lamb
TTITLE13=Altar Boy
TTITLE14=The Pontiac
TTITLE15=Spidey's Wild Ride
TTITLE16=King Kong
TTITLE17=On the Road
TTITLE18=Dog Treat [Unlisted Bonus Track]
TTITLE19=Missing My Son [Unlisted Bonus Track]
EXTD=YEAR: 2006 ANTI E86844-2
EXTT0=
EXTT1=
EXTT2=
EXTT3=
EXTT4=
EXTT5=
EXTT6=
EXTT7=
EXTT8=
EXTT9=
EXTT10=
EXTT11=
EXTT12=
EXTT13=
EXTT14=
EXTT15=
EXTT16=
EXTT17=
EXTT18=
EXTT19=
PLAYORDER=
